<svg width="16" height="18" viewBox="0 0 16 18" fill="none" xmlns="http://www.w3.org/2000/svg">
<path d="M12.6714 11.3094L12.6715 11.3094C13.2061 11.6111 14.0142 12.067 14.5678 12.6089C14.9141 12.9478 15.2431 13.3944 15.3029 13.9416C15.3665 14.5235 15.1127 15.0695 14.6034 15.5547C13.7248 16.3917 12.6705 17.0625 11.3067 17.0625H4.69304C3.32931 17.0625 2.27497 16.3917 1.39638 15.5547C0.88712 15.0695 0.633272 14.5235 0.696877 13.9416C0.756686 13.3944 1.08568 12.9478 1.43193 12.6089C1.98555 12.067 2.79369 11.6111 3.3283 11.3094L3.32834 11.3094C3.45032 11.2406 3.55806 11.1798 3.64529 11.1279C6.31082 9.54071 9.68895 9.54071 12.3545 11.1279C12.4417 11.1798 12.5494 11.2406 12.6714 11.3094Z" fill="url(#paint0_linear_101_42)"/>
<path opacity="0.4" d="M4.0625 4.875C4.0625 2.70038 5.82538 0.9375 8 0.9375C10.1746 0.9375 11.9375 2.70038 11.9375 4.875C11.9375 7.04962 10.1746 8.8125 8 8.8125C5.82538 8.8125 4.0625 7.04962 4.0625 4.875Z" fill="url(#paint1_linear_101_42)"/>
<defs>
<linearGradient id="paint0_linear_101_42" x1="7.99989" y1="9.9375" x2="7.99989" y2="17.0625" gradientUnits="userSpaceOnUse">
<stop stop-color="#DAC7FF"/>
<stop offset="1" stop-color="#F688FF"/>
</linearGradient>
<linearGradient id="paint1_linear_101_42" x1="8" y1="0.9375" x2="8" y2="8.8125" gradientUnits="userSpaceOnUse">
<stop stop-color="#DAC7FF"/>
<stop offset="1" stop-color="#F688FF"/>
</linearGradient>
</defs>
</svg>
