<svg width="22" height="22" viewBox="0 0 22 22" fill="none" xmlns="http://www.w3.org/2000/svg">
<path d="M11.8277 0.75C14.0033 0.749978 14.7381 0.74997 16.0981 0.932825C17.5025 1.12164 18.6563 1.52175 19.5687 2.43414C20.4811 3.34653 20.8812 4.50033 21.07 5.90471C21.234 7.12428 21.2509 9.047 21.2526 11L21.2494 11.75H19.2528C19.2528 9.48256 19.2507 7.38258 19.0878 6.17121C18.9288 4.9886 18.6333 4.3272 18.1545 3.84835C17.6756 3.3695 17.0142 3.07399 15.8316 2.91499C14.6202 2.75212 14.0203 2.75 11.7528 2.75C9.48538 2.75 7.3854 2.75212 6.17403 2.91499C4.99143 3.07399 4.33003 3.3695 3.85118 3.84835C3.37232 4.3272 3.07681 4.9886 2.91782 6.17121C2.75495 7.38258 2.75283 9.48256 2.75283 11.75L0.751953 11.7518L0.753023 10.9999C0.754755 9.04693 0.771688 7.12426 0.935651 5.90471C1.12447 4.50033 1.52457 3.34653 2.43696 2.43414C3.34935 1.52175 4.50316 1.12164 5.90754 0.932825C7.26767 0.74996 9.00239 0.749978 11.1783 0.75H11.1784H11.8277H11.8277Z" fill="url(#paint0_linear_101_66)"/>
<path opacity="0.4" d="M21.2453 12.5037C21.2368 14.2454 21.1975 15.6539 20.9924 16.7892C20.7834 17.9461 20.3919 18.8839 19.6368 19.6391C18.7786 20.4973 17.6863 20.8843 16.3097 21.0694C14.9662 21.25 13.2455 21.25 11.0548 21.25H10.9405C8.74978 21.25 7.02911 21.25 5.6857 21.0694C4.30904 20.8843 3.21679 20.4973 2.35859 19.6391C1.60342 18.8839 1.21192 17.9461 1.00296 16.7892C0.797893 15.6539 0.758576 14.2454 0.75 12.5037L0.751069 11.7518L2.75194 11.75L6.42333 11.75C7.70352 11.75 8.55879 12.7898 8.96929 13.6123C9.2595 14.1938 9.82308 14.75 10.9977 14.75C12.1723 14.75 12.7358 14.1938 13.0261 13.6123C13.4366 12.7898 14.2918 11.75 15.572 11.75L19.2519 11.75H21.2486L21.2453 12.5037Z" fill="url(#paint1_linear_101_66)"/>
<defs>
<linearGradient id="paint0_linear_101_66" x1="11.0023" y1="0.75" x2="11.0023" y2="11.7518" gradientUnits="userSpaceOnUse">
<stop stop-color="#A574FF"/>
<stop offset="1" stop-color="#F688FF"/>
</linearGradient>
<linearGradient id="paint1_linear_101_66" x1="10.9993" y1="11.75" x2="10.9993" y2="21.25" gradientUnits="userSpaceOnUse">
<stop stop-color="#A574FF"/>
<stop offset="1" stop-color="#F688FF"/>
</linearGradient>
</defs>
</svg>
