<svg width="18" height="18" viewBox="0 0 18 18" fill="none" xmlns="http://www.w3.org/2000/svg">
<path opacity="0.4" d="M9.04288 1.3125C10.6859 1.31249 11.9764 1.31248 12.984 1.44795C14.0165 1.58676 14.8357 1.87704 15.4793 2.52068C16.123 3.16433 16.4132 3.98352 16.5521 5.01602C16.6875 6.02357 16.6875 7.31405 16.6875 8.95705V8.95712V9.04288V9.04295C16.6875 10.6859 16.6875 11.9764 16.5521 12.984C16.4132 14.0165 16.123 14.8357 15.4793 15.4793C14.8357 16.123 14.0165 16.4132 12.984 16.5521C11.9764 16.6875 10.6859 16.6875 9.04295 16.6875H9.04288H8.95712H8.95705C7.31405 16.6875 6.02357 16.6875 5.01602 16.5521C3.98352 16.4132 3.16433 16.123 2.52068 15.4793C1.87704 14.8357 1.58676 14.0165 1.44795 12.984C1.31248 11.9764 1.31249 10.6859 1.3125 9.04288V8.95712C1.31249 7.31409 1.31248 6.02358 1.44795 5.01602C1.58676 3.98352 1.87704 3.16433 2.52068 2.52068C3.16433 1.87704 3.98352 1.58676 5.01602 1.44795C6.02358 1.31248 7.31409 1.31249 8.95712 1.3125H9.04288Z" fill="url(#paint0_linear_101_80)"/>
<path fill-rule="evenodd" clip-rule="evenodd" d="M5.25 11.4375C5.56066 11.4375 5.8125 11.6893 5.8125 12L5.8125 13.5C5.8125 13.8107 5.56066 14.0625 5.25 14.0625C4.93934 14.0625 4.6875 13.8107 4.6875 13.5L4.6875 12C4.6875 11.6893 4.93934 11.4375 5.25 11.4375Z" fill="url(#paint1_linear_101_80)"/>
<path fill-rule="evenodd" clip-rule="evenodd" d="M9 10.6875C9.31066 10.6875 9.5625 10.9393 9.5625 11.25L9.5625 13.5C9.5625 13.8107 9.31066 14.0625 9 14.0625C8.68934 14.0625 8.4375 13.8107 8.4375 13.5L8.4375 11.25C8.4375 10.9393 8.68934 10.6875 9 10.6875Z" fill="url(#paint2_linear_101_80)"/>
<path fill-rule="evenodd" clip-rule="evenodd" d="M12.75 9.1875C13.0607 9.1875 13.3125 9.43934 13.3125 9.75L13.3125 13.5C13.3125 13.8107 13.0607 14.0625 12.75 14.0625C12.4393 14.0625 12.1875 13.8107 12.1875 13.5L12.1875 9.75C12.1875 9.43934 12.4393 9.1875 12.75 9.1875Z" fill="url(#paint3_linear_101_80)"/>
<path fill-rule="evenodd" clip-rule="evenodd" d="M12.4836 4.06464C12.277 3.94721 12.0677 3.93129 11.8942 3.93921C11.741 3.9462 11.5622 3.97573 11.3841 4.00515C11.3758 4.00652 11.3675 4.00789 11.3592 4.00926L10.4085 4.16609C10.1019 4.21665 9.89444 4.50612 9.945 4.81263C9.99556 5.11915 10.285 5.32665 10.5915 5.27609L11.1344 5.18653C9.72258 7.16835 7.46447 8.0625 4.5 8.0625C4.18934 8.0625 3.9375 8.31434 3.9375 8.625C3.9375 8.93566 4.18934 9.1875 4.5 9.1875C7.74154 9.1875 10.4239 8.17943 12.0992 5.77086L12.2093 6.15492C12.2948 6.45357 12.6063 6.62631 12.9049 6.54075C13.2036 6.45519 13.3763 6.14373 13.2907 5.84508L13.0521 5.01223C13.0497 5.00368 13.0472 4.99508 13.0448 4.98644C13.0012 4.83424 12.9536 4.66758 12.8918 4.53079C12.8167 4.36433 12.6978 4.1864 12.4836 4.06464Z" fill="url(#paint4_linear_101_80)"/>
<defs>
<linearGradient id="paint0_linear_101_80" x1="9" y1="1.3125" x2="9" y2="16.6875" gradientUnits="userSpaceOnUse">
<stop stop-color="#A574FF"/>
<stop offset="1" stop-color="#F8A5FF"/>
</linearGradient>
<linearGradient id="paint1_linear_101_80" x1="5.25" y1="11.4375" x2="5.25" y2="14.0625" gradientUnits="userSpaceOnUse">
<stop stop-color="#A574FF"/>
<stop offset="1" stop-color="#F8A5FF"/>
</linearGradient>
<linearGradient id="paint2_linear_101_80" x1="9" y1="10.6875" x2="9" y2="14.0625" gradientUnits="userSpaceOnUse">
<stop stop-color="#A574FF"/>
<stop offset="1" stop-color="#F8A5FF"/>
</linearGradient>
<linearGradient id="paint3_linear_101_80" x1="12.75" y1="9.1875" x2="12.75" y2="14.0625" gradientUnits="userSpaceOnUse">
<stop stop-color="#A574FF"/>
<stop offset="1" stop-color="#F8A5FF"/>
</linearGradient>
<linearGradient id="paint4_linear_101_80" x1="8.62507" y1="3.9375" x2="8.62507" y2="9.1875" gradientUnits="userSpaceOnUse">
<stop stop-color="#A574FF"/>
<stop offset="1" stop-color="#F8A5FF"/>
</linearGradient>
</defs>
</svg>
