<svg width="14" height="18" viewBox="0 0 14 18" fill="none" xmlns="http://www.w3.org/2000/svg">
<path opacity="0.4" d="M8.16681 1.78125C9.36876 1.78124 10.328 1.78123 11.0803 1.88237C11.8575 1.98686 12.4975 2.20849 13.0039 2.71485C13.5103 3.2212 13.7319 3.86126 13.8364 4.63846C13.9375 5.39078 13.9375 6.35 13.9375 7.55194V11.3856C13.9375 12.5875 13.9375 13.5467 13.8364 14.299C13.7319 15.0762 13.5103 15.7163 13.0039 16.2227C12.4975 16.729 11.8575 16.9506 11.0803 17.0551C10.328 17.1563 9.36875 17.1563 8.16681 17.1562H5.83319C4.63125 17.1563 3.67203 17.1563 2.91971 17.0551C2.14251 16.9506 1.50245 16.729 0.996098 16.2227C0.489743 15.7163 0.268114 15.0762 0.163622 14.299C0.062476 13.5467 0.0624868 12.5875 0.0625 11.3856L0.0625 7.55194V7.55194C0.0624868 6.34999 0.0624762 5.39077 0.163622 4.63846C0.268114 3.86126 0.489743 3.2212 0.996098 2.71485C1.50245 2.20849 2.14251 1.98686 2.91971 1.88237C3.67202 1.78123 4.63124 1.78124 5.83318 1.78125H5.83319L8.16681 1.78125Z" fill="url(#paint0_linear_101_73)"/>
<path fill-rule="evenodd" clip-rule="evenodd" d="M3.25 0.84375C3.66421 0.84375 4 1.17954 4 1.59375L4 3.09375C4 3.50796 3.66421 3.84375 3.25 3.84375C2.83579 3.84375 2.5 3.50796 2.5 3.09375L2.5 1.59375C2.5 1.17954 2.83579 0.84375 3.25 0.84375ZM7 0.84375C7.41421 0.84375 7.75 1.17954 7.75 1.59375L7.75 3.09375C7.75 3.50796 7.41421 3.84375 7 3.84375C6.58579 3.84375 6.25 3.50796 6.25 3.09375V1.59375C6.25 1.17954 6.58579 0.84375 7 0.84375ZM10.75 0.84375C11.1642 0.84375 11.5 1.17954 11.5 1.59375V3.09375C11.5 3.50796 11.1642 3.84375 10.75 3.84375C10.3358 3.84375 10 3.50796 10 3.09375V1.59375C10 1.17954 10.3358 0.84375 10.75 0.84375Z" fill="url(#paint1_linear_101_73)"/>
<path fill-rule="evenodd" clip-rule="evenodd" d="M3.25 7.59375C3.25 7.17954 3.58579 6.84375 4 6.84375L10 6.84375C10.4142 6.84375 10.75 7.17954 10.75 7.59375C10.75 8.00796 10.4142 8.34375 10 8.34375L4 8.34375C3.58579 8.34375 3.25 8.00796 3.25 7.59375ZM3.25 11.3437C3.25 10.9295 3.58579 10.5937 4 10.5937H7C7.41421 10.5937 7.75 10.9295 7.75 11.3437C7.75 11.758 7.41421 12.0937 7 12.0937H4C3.58579 12.0937 3.25 11.758 3.25 11.3437Z" fill="url(#paint2_linear_101_73)"/>
<defs>
<linearGradient id="paint0_linear_101_73" x1="7" y1="1.78125" x2="7" y2="17.1563" gradientUnits="userSpaceOnUse">
<stop stop-color="#A574FF"/>
<stop offset="1" stop-color="#F8A5FF"/>
</linearGradient>
<linearGradient id="paint1_linear_101_73" x1="7" y1="0.84375" x2="7" y2="3.84375" gradientUnits="userSpaceOnUse">
<stop stop-color="#A574FF"/>
<stop offset="1" stop-color="#F8A5FF"/>
</linearGradient>
<linearGradient id="paint2_linear_101_73" x1="7" y1="6.84375" x2="7" y2="12.0937" gradientUnits="userSpaceOnUse">
<stop stop-color="#A574FF"/>
<stop offset="1" stop-color="#F8A5FF"/>
</linearGradient>
</defs>
</svg>
