<svg width="18" height="22" viewBox="0 0 18 22" fill="none" xmlns="http://www.w3.org/2000/svg">
<path d="M16.75 20.75V15.75C16.75 13.8644 16.75 12.9216 16.1642 12.3358C15.5784 11.75 14.6356 11.75 12.75 11.75L8.75 20.75L4.75 11.75C2.86438 11.75 1.92157 11.75 1.33579 12.3358C0.75 12.9216 0.75 13.8644 0.75 15.75L0.75 20.75" stroke="white" stroke-width="1.5" stroke-linecap="round" stroke-linejoin="round"/>
<path d="M8.75 13.75L8.25 17.75L8.75 19.25L9.25 17.75L8.75 13.75ZM8.75 13.75L7.75 11.75H9.75L8.75 13.75Z" stroke="white" stroke-width="1.5" stroke-linecap="round" stroke-linejoin="round"/>
<path d="M12.25 5.25V4.25C12.25 2.317 10.683 0.75 8.75 0.75C6.817 0.75 5.25 2.317 5.25 4.25V5.25C5.25 7.183 6.817 8.75 8.75 8.75C10.683 8.75 12.25 7.183 12.25 5.25Z" stroke="white" stroke-width="1.5" stroke-linecap="round" stroke-linejoin="round"/>
</svg>
