<svg width="22" height="19" viewBox="0 0 22 19" fill="none" xmlns="http://www.w3.org/2000/svg">
<path d="M10.75 16.75C9.41746 17.3724 7.66707 17.75 5.75 17.75C4.68408 17.75 3.66969 17.6333 2.75 17.4226C1.16828 17.0603 0.75 16.1296 0.75 14.636V3.86397C0.75 2.87914 1.79003 2.20273 2.75 2.4226C3.66969 2.63325 4.68408 2.75 5.75 2.75C7.66707 2.75 9.41746 2.37236 10.75 1.75C12.0825 1.12764 13.8329 0.75 15.75 0.75C16.8159 0.75 17.8303 0.866748 18.75 1.0774C20.3317 1.43968 20.75 2.37036 20.75 3.86397V14.636C20.75 15.6209 19.71 16.2973 18.75 16.0774C17.8303 15.8667 16.8159 15.75 15.75 15.75C13.8329 15.75 12.0825 16.1276 10.75 16.75Z" stroke="white" stroke-width="1.5"/>
<path d="M13.25 9.25C13.25 10.6307 12.1307 11.75 10.75 11.75C9.36929 11.75 8.25 10.6307 8.25 9.25C8.25 7.86929 9.36929 6.75 10.75 6.75C12.1307 6.75 13.25 7.86929 13.25 9.25Z" stroke="white" stroke-width="1.5"/>
<path d="M4.25 10.25L4.25 10.259" stroke="white" stroke-width="2" stroke-linecap="round" stroke-linejoin="round"/>
<path d="M17.25 8.24219L17.25 8.25117" stroke="white" stroke-width="2" stroke-linecap="round" stroke-linejoin="round"/>
</svg>
