<svg width="22" height="22" viewBox="0 0 22 22" fill="none" xmlns="http://www.w3.org/2000/svg">
<path d="M17.75 8.75C15.745 8.11815 13.3382 7.75 10.75 7.75C8.16179 7.75 5.75499 8.11815 3.75 8.75V12.25C5.75499 11.6182 8.16179 11.25 10.75 11.25C13.3382 11.25 15.745 11.6182 17.75 12.25V8.75Z" stroke="white" stroke-width="1.5" stroke-linejoin="round"/>
<path d="M17.75 11.75V13.7732C17.75 15.9042 16.7179 17.879 15.0312 18.9754L13.6312 19.8854C11.8578 21.0382 9.64225 21.0382 7.86882 19.8854L6.46883 18.9754C4.78208 17.879 3.75 15.9042 3.75 13.7732V11.75" stroke="white" stroke-width="1.5" stroke-linecap="round"/>
<path d="M17.75 8.75L18.8757 8.1571C20.1388 7.32875 20.7703 6.91457 20.7495 6.32281C20.7287 5.73105 20.07 5.37104 18.7525 4.65101L14.0253 2.06756C12.4181 1.18919 11.6145 0.75 10.75 0.75C9.88554 0.75 9.08192 1.18919 7.47468 2.06756L2.74753 4.65101C1.43004 5.37104 0.771289 5.73105 0.750497 6.32281C0.729705 6.91457 1.36125 7.32875 2.62434 8.1571L3.75 8.75" stroke="white" stroke-width="1.5" stroke-linecap="round"/>
</svg>
