<svg width="34" height="28" viewBox="0 0 34 28" fill="none" xmlns="http://www.w3.org/2000/svg">
<path d="M16.1245 22.8433C21.1464 17.4702 25.9944 13.8252 32.0841 8.66326C33.9069 7.1182 34.1884 4.40996 32.7585 2.49121C31.2389 0.451965 28.3511 0.0443566 26.3966 1.66553C20.8184 6.29235 16.4787 10.7473 12.362 15.5088C12.1459 15.7587 12.0379 15.8836 11.9258 15.9539C11.6415 16.1323 11.2863 16.1342 11.0001 15.9589C10.8873 15.8897 10.7791 15.7672 10.5627 15.5222L8.36903 13.0384C6.36749 10.7722 2.77745 11.0231 1.1063 13.5459C-0.0631654 15.3114 0.110137 17.6511 1.52676 19.2226L4.96666 23.0384C7.53956 25.8925 8.82601 27.3196 10.3704 27.3336C11.9148 27.3475 13.318 25.8461 16.1245 22.8433Z" fill="#7226FF"/>
</svg>
