<svg width="18" height="18" viewBox="0 0 18 18" fill="none" xmlns="http://www.w3.org/2000/svg">
<g opacity="0.4">
<path d="M5.62753 9.86059C5.41221 9.976 5.20118 10.0968 5.04611 10.1927C4.67515 10.4096 3.97644 10.8181 3.47167 11.3312C3.14592 11.6623 2.7177 12.2128 2.638 12.97C2.61338 13.2038 2.6245 13.4277 2.66478 13.6403C2.70509 13.8532 2.72524 13.9596 2.67139 14.0154C2.61754 14.0712 2.52781 14.0576 2.34835 14.0303C1.58049 13.9134 1.06157 13.4948 0.635731 13.0384C0.317309 12.6971 0.15284 12.3046 0.193631 11.8848C0.23193 11.4906 0.442643 11.1732 0.653383 10.9411C0.985993 10.5749 1.47625 10.2645 1.76986 10.0786C1.83258 10.0389 1.88636 10.0048 1.92767 9.97717C3.03574 9.23491 4.35727 9.01593 5.59129 9.32023C5.88222 9.39197 6.02768 9.42784 6.04054 9.53009C6.0534 9.63233 5.91144 9.70842 5.62753 9.86059Z" fill="url(#paint0_linear_101_48)"/>
<path d="M4.86561 3.96479C5.00789 3.98619 5.07902 3.99689 5.11557 4.05599C5.15212 4.11509 5.12665 4.19358 5.0757 4.35057C4.94544 4.75194 4.87505 5.18028 4.87505 5.62506C4.87505 6.55503 5.18279 7.41311 5.70199 8.10304C5.80104 8.23466 5.85056 8.30047 5.8353 8.36819C5.82004 8.4359 5.75636 8.46923 5.62902 8.5359C5.2915 8.71261 4.90744 8.81256 4.50005 8.81256C3.15385 8.81256 2.06255 7.72126 2.06255 6.37506C2.06255 5.02887 3.15385 3.93756 4.50005 3.93756C4.62429 3.93756 4.74636 3.94686 4.86561 3.96479Z" fill="url(#paint1_linear_101_48)"/>
</g>
<g opacity="0.4">
<path d="M12.3728 9.86053C12.5881 9.97594 12.7991 10.0968 12.9542 10.1927C13.3252 10.4095 14.0239 10.818 14.5287 11.3311C14.8544 11.6622 15.2826 12.2127 15.3623 12.9699C15.3869 13.2038 15.3758 13.4276 15.3355 13.6403C15.2952 13.8531 15.2751 13.9595 15.3289 14.0153C15.3828 14.0712 15.4725 14.0575 15.652 14.0302C16.4198 13.9133 16.9388 13.4947 17.3646 13.0383C17.683 12.697 17.8475 12.3045 17.8067 11.8847C17.7684 11.4906 17.5577 11.1731 17.3469 10.9411C17.0143 10.5748 16.5241 10.2644 16.2305 10.0785C16.1677 10.0388 16.114 10.0048 16.0727 9.97711C14.9646 9.23485 13.6431 9.01587 12.409 9.32017C12.1181 9.39191 11.9726 9.42778 11.9598 9.53003C11.9469 9.63227 12.0889 9.70836 12.3728 9.86053Z" fill="url(#paint2_linear_101_48)"/>
<path d="M12.2984 8.10298C12.1994 8.2346 12.1499 8.30041 12.1651 8.36812C12.1804 8.43584 12.2441 8.46917 12.3714 8.53584C12.7089 8.71255 13.093 8.8125 13.5004 8.8125C14.8466 8.8125 15.9379 7.72119 15.9379 6.375C15.9379 5.02881 14.8466 3.9375 13.5004 3.9375C13.3761 3.9375 13.2541 3.9468 13.1348 3.96473C12.9925 3.98613 12.9214 3.99683 12.8848 4.05593C12.8483 4.11503 12.8738 4.19352 12.9247 4.35051C13.055 4.75187 13.1254 5.18022 13.1254 5.625C13.1254 6.55496 12.8176 7.41305 12.2984 8.10298Z" fill="url(#paint3_linear_101_48)"/>
</g>
<path d="M5.7686 10.855C7.74693 9.63168 10.2562 9.63168 12.2346 10.855C12.2929 10.891 12.3668 10.9343 12.4516 10.9839C12.8358 11.2087 13.4457 11.5656 13.8619 11.9887C14.1233 12.2544 14.384 12.6166 14.4315 13.0681C14.4824 13.5512 14.2773 13.9984 13.8862 14.3854C13.2399 15.0248 12.4394 15.5625 11.3899 15.5625H6.6133C5.5637 15.5625 4.7632 15.0248 4.11699 14.3854C3.72581 13.9984 3.52076 13.5512 3.57161 13.0681C3.61915 12.6166 3.87984 12.2544 4.14124 11.9887C4.55742 11.5656 5.16731 11.2087 5.55151 10.9839C5.6364 10.9343 5.71027 10.891 5.7686 10.855Z" fill="url(#paint4_linear_101_48)"/>
<path d="M5.81396 5.625C5.81396 3.86459 7.24106 2.4375 9.00146 2.4375C10.7619 2.4375 12.189 3.86459 12.189 5.625C12.189 7.38541 10.7619 8.8125 9.00146 8.8125C7.24106 8.8125 5.81396 7.38541 5.81396 5.625Z" fill="url(#paint5_linear_101_48)"/>
<defs>
<linearGradient id="paint0_linear_101_48" x1="3.11442" y1="3.93756" x2="3.11442" y2="14.054" gradientUnits="userSpaceOnUse">
<stop stop-color="#A574FF"/>
<stop offset="1" stop-color="#F688FF"/>
</linearGradient>
<linearGradient id="paint1_linear_101_48" x1="3.11442" y1="3.93756" x2="3.11442" y2="14.054" gradientUnits="userSpaceOnUse">
<stop stop-color="#A574FF"/>
<stop offset="1" stop-color="#F688FF"/>
</linearGradient>
<linearGradient id="paint2_linear_101_48" x1="14.8859" y1="3.9375" x2="14.8859" y2="14.054" gradientUnits="userSpaceOnUse">
<stop stop-color="#A574FF"/>
<stop offset="1" stop-color="#F688FF"/>
</linearGradient>
<linearGradient id="paint3_linear_101_48" x1="14.8859" y1="3.9375" x2="14.8859" y2="14.054" gradientUnits="userSpaceOnUse">
<stop stop-color="#A574FF"/>
<stop offset="1" stop-color="#F688FF"/>
</linearGradient>
<linearGradient id="paint4_linear_101_48" x1="9.00157" y1="9.9375" x2="9.00157" y2="15.5625" gradientUnits="userSpaceOnUse">
<stop stop-color="#A574FF"/>
<stop offset="1" stop-color="#F688FF"/>
</linearGradient>
<linearGradient id="paint5_linear_101_48" x1="9.00146" y1="2.4375" x2="9.00146" y2="8.8125" gradientUnits="userSpaceOnUse">
<stop stop-color="#A574FF"/>
<stop offset="1" stop-color="#F688FF"/>
</linearGradient>
</defs>
</svg>
