<svg width="200" height="200" viewBox="0 0 200 200" fill="none" xmlns="http://www.w3.org/2000/svg">
<path d="M164.256 31.2555L105.922 12.5888C102.044 11.3444 97.9444 11.3555 94.0777 12.5888L35.7333 31.2555C27.6444 33.8444 22.2222 41.2888 22.2222 49.7777V122.222C22.2222 161.2 77.1777 181.989 93.9999 187.433C95.9666 188.067 97.9777 188.389 99.9999 188.389C102.022 188.389 104.022 188.078 105.978 187.444C122.822 182 177.778 161.211 177.778 122.233V49.7777C177.778 41.2888 172.344 33.8444 164.256 31.2555ZM134.467 80.0222L96.7222 130.022C95.2999 131.9 93.1444 133.089 90.7888 133.3C90.5555 133.322 90.3111 133.333 90.0666 133.333C87.9666 133.333 85.9333 132.544 84.3888 131.1L66.5111 114.433C63.1444 111.289 62.9555 106.022 66.0888 102.656C69.2444 99.2888 74.5111 99.1111 77.8666 102.233L88.9888 112.6L121.167 69.9777C123.944 66.3111 129.167 65.5777 132.844 68.3555C136.522 71.1333 137.244 76.3444 134.467 80.0222Z" fill="url(#paint0_linear_34_10)"/>
<defs>
<linearGradient id="paint0_linear_34_10" x1="99.9999" y1="11.6597" x2="99.9999" y2="188.389" gradientUnits="userSpaceOnUse">
<stop stop-color="#F042FF"/>
<stop offset="1" stop-color="#7226FF"/>
</linearGradient>
</defs>
</svg>
