<svg width="200" height="200" viewBox="0 0 200 200" fill="none" xmlns="http://www.w3.org/2000/svg">
<path d="M91.5354 111C119.15 111 141.535 88.6142 141.535 61C141.535 33.3858 119.15 11 91.5354 11C63.9212 11 41.5354 33.3858 41.5354 61C41.5354 88.6142 63.9212 111 91.5354 111Z" fill="url(#paint0_linear_34_4)"/>
<path d="M99.8687 130.444C99.8687 125.844 96.1353 122.111 91.5353 122.111C61.6576 122.111 33.9353 137 17.3909 161.944C14.8465 165.778 15.8909 170.956 19.7242 173.5C21.1465 174.433 22.7353 174.889 24.3242 174.889C27.0242 174.889 29.6687 173.578 31.2798 171.167C44.7242 150.889 67.2465 138.789 91.5353 138.789C96.1353 138.789 99.8687 135.056 99.8687 130.456V130.444Z" fill="url(#paint1_linear_34_4)"/>
<path d="M197.413 128.444C194.846 124.478 190.491 122.111 185.758 122.111H125.702C120.213 122.111 115.235 125.356 113.002 130.356L94.4465 172.111H66.5354C61.9354 172.111 58.202 175.844 58.202 180.444C58.202 185.044 61.9354 188.778 66.5354 188.778H168.48C173.969 188.778 178.946 185.533 181.18 180.533L198.458 141.656C200.391 137.344 200.002 132.4 197.424 128.444H197.413Z" fill="url(#paint2_linear_34_4)"/>
<defs>
<linearGradient id="paint0_linear_34_4" x1="91.5354" y1="11" x2="91.5354" y2="111" gradientUnits="userSpaceOnUse">
<stop stop-color="#A574FF"/>
<stop offset="1" stop-color="#160078"/>
</linearGradient>
<linearGradient id="paint1_linear_34_4" x1="57.9343" y1="122.111" x2="57.9343" y2="174.889" gradientUnits="userSpaceOnUse">
<stop stop-color="#A574FF"/>
<stop offset="1" stop-color="#160078"/>
</linearGradient>
<linearGradient id="paint2_linear_34_4" x1="128.938" y1="122.111" x2="128.938" y2="188.778" gradientUnits="userSpaceOnUse">
<stop stop-color="#A574FF"/>
<stop offset="1" stop-color="#160078"/>
</linearGradient>
</defs>
</svg>
