<svg width="18" height="18" viewBox="0 0 18 18" fill="none" xmlns="http://www.w3.org/2000/svg">
<path d="M1.89876 6.9925C2.09804 6.94873 2.32065 6.9375 2.55 6.9375H15.45C15.6793 6.9375 15.902 6.94873 16.1012 6.9925C16.3069 7.03768 16.5219 7.12484 16.6985 7.30149C16.8752 7.47814 16.9623 7.69312 17.0075 7.89876C17.0513 8.09804 17.0625 8.32065 17.0625 8.55V9.45C17.0625 9.67935 17.0513 9.90196 17.0075 10.1012C16.9623 10.3069 16.8752 10.5219 16.6985 10.6985C16.5219 10.8752 16.3069 10.9623 16.1012 11.0075C15.902 11.0513 15.6793 11.0625 15.45 11.0625H2.55C2.32065 11.0625 2.09804 11.0513 1.89876 11.0075C1.69312 10.9623 1.47814 10.8752 1.30149 10.6985C1.12484 10.5219 1.03768 10.3069 0.992502 10.1012C0.948725 9.90196 0.9375 9.67935 0.9375 9.45V8.55C0.9375 8.32065 0.948725 8.09804 0.992502 7.89876C1.03768 7.69312 1.12484 7.47814 1.30149 7.30149C1.47814 7.12484 1.69312 7.03768 1.89876 6.9925Z" fill="url(#paint0_linear_101_57)"/>
<path opacity="0.4" d="M1.89876 0.992502C2.09804 0.948725 2.32065 0.9375 2.55 0.9375H15.45C15.6793 0.9375 15.902 0.948725 16.1012 0.992502C16.3069 1.03768 16.5219 1.12484 16.6985 1.30149C16.8752 1.47814 16.9623 1.69312 17.0075 1.89876C17.0513 2.09804 17.0625 2.32065 17.0625 2.55V3.45C17.0625 3.67935 17.0513 3.90196 17.0075 4.10124C16.9623 4.30688 16.8752 4.52186 16.6985 4.69851C16.5219 4.87516 16.3069 4.96232 16.1012 5.0075C15.902 5.05127 15.6793 5.0625 15.45 5.0625H2.55C2.32065 5.0625 2.09804 5.05127 1.89876 5.0075C1.69312 4.96232 1.47814 4.87516 1.30149 4.69851C1.12484 4.52186 1.03768 4.30688 0.992502 4.10124C0.948725 3.90196 0.9375 3.67935 0.9375 3.45V2.55C0.9375 2.32065 0.948725 2.09804 0.992502 1.89876C1.03768 1.69312 1.12484 1.47814 1.30149 1.30149C1.47814 1.12484 1.69312 1.03768 1.89876 0.992502Z" fill="url(#paint1_linear_101_57)"/>
<path opacity="0.4" d="M1.89876 12.9925C2.09804 12.9487 2.32065 12.9375 2.55 12.9375H15.45C15.6793 12.9375 15.902 12.9487 16.1012 12.9925C16.3069 13.0377 16.5219 13.1248 16.6985 13.3015C16.8752 13.4781 16.9623 13.6931 17.0075 13.8988C17.0513 14.098 17.0625 14.3207 17.0625 14.55V15.45C17.0625 15.6793 17.0513 15.902 17.0075 16.1012C16.9623 16.3069 16.8752 16.5219 16.6985 16.6985C16.5219 16.8752 16.3069 16.9623 16.1012 17.0075C15.902 17.0513 15.6793 17.0625 15.45 17.0625H2.55C2.32065 17.0625 2.09804 17.0513 1.89876 17.0075C1.69312 16.9623 1.47814 16.8752 1.30149 16.6985C1.12484 16.5219 1.03768 16.3069 0.992502 16.1012C0.948725 15.902 0.9375 15.6793 0.9375 15.45V14.55C0.9375 14.3207 0.948725 14.098 0.992502 13.8988C1.03768 13.6931 1.12484 13.4781 1.30149 13.3015C1.47814 13.1248 1.69312 13.0377 1.89876 12.9925Z" fill="url(#paint2_linear_101_57)"/>
<defs>
<linearGradient id="paint0_linear_101_57" x1="9" y1="6.9375" x2="9" y2="11.0625" gradientUnits="userSpaceOnUse">
<stop stop-color="#DAC7FF"/>
<stop offset="1" stop-color="#F688FF"/>
</linearGradient>
<linearGradient id="paint1_linear_101_57" x1="9" y1="0.9375" x2="9" y2="5.0625" gradientUnits="userSpaceOnUse">
<stop stop-color="#DAC7FF"/>
<stop offset="1" stop-color="#F688FF"/>
</linearGradient>
<linearGradient id="paint2_linear_101_57" x1="9" y1="12.9375" x2="9" y2="17.0625" gradientUnits="userSpaceOnUse">
<stop stop-color="#DAC7FF"/>
<stop offset="1" stop-color="#F688FF"/>
</linearGradient>
</defs>
</svg>
