<svg width="200" height="200" viewBox="0 0 200 200" fill="none" xmlns="http://www.w3.org/2000/svg">
<path d="M25.0111 147.844C22.1222 147.844 19.2666 146.944 16.8778 145.222C13.2666 142.622 11.1111 138.411 11.1111 133.955V66.0443C11.1111 61.5888 13.2666 57.3777 16.8778 54.7777C20.4889 52.1777 25.1778 51.4554 29.3889 52.8666L38.7444 55.9888C43.1111 57.4443 45.4666 62.1666 44.0111 66.5332C42.5555 70.8888 37.8333 73.2443 33.4666 71.7999L27.7666 69.8999V130.111L33.4666 128.211C37.8444 126.755 42.5555 129.111 44.0111 133.478C45.4666 137.844 43.1111 142.567 38.7444 144.022L29.3889 147.144C27.9666 147.622 26.4778 147.855 25.0111 147.855V147.844Z" fill="url(#paint0_linear_34_17)"/>
<path d="M69.4444 169.444C66.7444 169.444 64.0667 168.656 61.7444 167.111C57.8778 164.533 55.5667 160.211 55.5667 155.556V44.4445C55.5667 39.7889 57.8778 35.4667 61.7444 32.8889C65.6333 30.3111 70.5111 29.8556 74.7889 31.6222L83.7667 35.3556C88.0111 37.1222 90.0222 42.0111 88.2555 46.2556C86.4889 50.5 81.6111 52.5 77.3555 50.7445L72.2333 48.6111V151.389L77.3555 149.256C81.6222 147.489 86.4889 149.5 88.2555 153.744C90.0222 157.989 88.0222 162.878 83.7667 164.644L74.7889 168.378C73.0666 169.089 71.2444 169.444 69.4444 169.444Z" fill="url(#paint1_linear_34_17)"/>
<path d="M177.589 39.4555L119.711 12.7332C115.389 10.7444 110.422 11.0888 106.4 13.6444C102.389 16.211 100 20.5888 100 25.3443V174.655C100 179.411 102.389 183.789 106.4 186.355C108.678 187.811 111.267 188.555 113.878 188.555C115.856 188.555 117.844 188.122 119.711 187.267L177.589 160.555C184.456 157.389 188.889 150.455 188.889 142.9V57.111C188.889 49.5555 184.456 42.6221 177.589 39.4555Z" fill="url(#paint2_linear_34_17)"/>
<defs>
<linearGradient id="paint0_linear_34_17" x1="27.7763" y1="52.157" x2="27.7763" y2="147.855" gradientUnits="userSpaceOnUse">
<stop stop-color="#2037CB"/>
<stop offset="1" stop-color="#FF87BF"/>
</linearGradient>
<linearGradient id="paint1_linear_34_17" x1="72.2323" y1="30.5625" x2="72.2323" y2="169.444" gradientUnits="userSpaceOnUse">
<stop stop-color="#2037CB"/>
<stop offset="1" stop-color="#FF87BF"/>
</linearGradient>
<linearGradient id="paint2_linear_34_17" x1="144.444" y1="11.4521" x2="144.444" y2="188.555" gradientUnits="userSpaceOnUse">
<stop stop-color="#2037CB"/>
<stop offset="1" stop-color="#FF87BF"/>
</linearGradient>
</defs>
</svg>
