<svg width="200" height="200" viewBox="0 0 200 200" fill="none" xmlns="http://www.w3.org/2000/svg">
<path d="M25 69.4444C20.4 69.4444 16.6667 65.7111 16.6667 61.1111C16.6667 37.7222 33.4 17.8889 56.4556 13.9556L129.367 1.51111C137.933 0.0666646 146.178 4.27777 150.033 11.9778L150.633 13.1778C152.689 17.3 151 22.3 146.878 24.3444C142.744 26.4111 137.767 24.7111 135.7 20.6L135.111 19.4222C134.578 18.3333 133.456 17.7222 132.156 17.9444L59.2445 30.3889C44.2222 32.9556 33.3222 45.8778 33.3222 61.1222C33.3222 65.7222 29.5889 69.4556 24.9889 69.4556L25 69.4444Z" fill="url(#paint0_linear_34_31)"/>
<path d="M122.222 105.555C122.222 87.1777 137.178 72.2221 155.556 72.2221H183.333V63.8888C183.333 47.0333 169.633 33.3333 152.778 33.3333H47.2222C30.3667 33.3333 16.6667 47.0333 16.6667 63.8888V147.222C16.6667 164.078 30.3667 177.778 47.2222 177.778H152.778C169.633 177.778 183.333 164.078 183.333 147.222V138.889H155.556C137.178 138.889 122.222 123.933 122.222 105.555Z" fill="url(#paint1_linear_34_31)"/>
<path d="M183.333 122.222H155.556C146.356 122.222 138.889 114.756 138.889 105.556C138.889 96.3556 146.356 88.8889 155.556 88.8889H183.333C189.467 88.8889 194.444 93.8667 194.444 100V111.111C194.444 117.244 189.467 122.222 183.333 122.222Z" fill="url(#paint2_linear_34_31)"/>
<defs>
<linearGradient id="paint0_linear_34_31" x1="84.0878" y1="1.22974" x2="84.0878" y2="69.4556" gradientUnits="userSpaceOnUse">
<stop stop-color="#87F5F5"/>
<stop offset="1" stop-color="#0022FD"/>
</linearGradient>
<linearGradient id="paint1_linear_34_31" x1="100" y1="33.3333" x2="100" y2="177.778" gradientUnits="userSpaceOnUse">
<stop stop-color="#87F5F5"/>
<stop offset="1" stop-color="#0022FD"/>
</linearGradient>
<linearGradient id="paint2_linear_34_31" x1="166.667" y1="88.8889" x2="166.667" y2="122.222" gradientUnits="userSpaceOnUse">
<stop stop-color="#87F5F5"/>
<stop offset="1" stop-color="#0022FD"/>
</linearGradient>
</defs>
</svg>
