<svg width="200" height="200" viewBox="0 0 200 200" fill="none" xmlns="http://www.w3.org/2000/svg">
<path d="M130.556 61.1112C125.956 61.1112 122.222 57.3779 122.222 52.7779V25.0001C122.222 23.4668 120.978 22.2223 119.444 22.2223H80.5555C79.0222 22.2223 77.7778 23.4668 77.7778 25.0001V52.7779C77.7778 57.3779 74.0444 61.1112 69.4444 61.1112C64.8444 61.1112 61.1111 57.3779 61.1111 52.7779V25.0001C61.1111 14.2779 69.8333 5.55566 80.5555 5.55566H119.444C130.167 5.55566 138.889 14.2779 138.889 25.0001V52.7779C138.889 57.3779 135.156 61.1112 130.556 61.1112Z" fill="url(#paint0_linear_34_26)"/>
<path d="M188.889 83.5446V75.0001C188.889 58.1446 175.189 44.4446 158.333 44.4446H41.6666C24.8111 44.4446 11.1111 58.1446 11.1111 75.0001V83.5446C35.3777 96.3113 62.7 103.878 91.6666 105.133V102.778C91.6666 98.1779 95.4 94.4446 100 94.4446C104.6 94.4446 108.333 98.1779 108.333 102.778V105.133C137.3 103.878 164.622 96.3113 188.889 83.5446Z" fill="url(#paint1_linear_34_26)"/>
<path d="M108.333 121.8V127.778C108.333 132.378 104.6 136.111 100 136.111C95.4 136.111 91.6666 132.378 91.6666 127.778V121.8C62.9333 120.656 35.7333 113.711 11.1111 102.022V147.222C11.1111 164.078 24.8111 177.778 41.6666 177.778H158.333C175.189 177.778 188.889 164.078 188.889 147.222V102.022C164.267 113.7 137.067 120.656 108.333 121.8Z" fill="url(#paint2_linear_34_26)"/>
<defs>
<linearGradient id="paint0_linear_34_26" x1="100" y1="5.55566" x2="100" y2="61.1112" gradientUnits="userSpaceOnUse">
<stop stop-color="#F25AFA"/>
<stop offset="1" stop-color="#160078"/>
</linearGradient>
<linearGradient id="paint1_linear_34_26" x1="100" y1="44.4446" x2="100" y2="105.133" gradientUnits="userSpaceOnUse">
<stop stop-color="#F25AFA"/>
<stop offset="1" stop-color="#160078"/>
</linearGradient>
<linearGradient id="paint2_linear_34_26" x1="100" y1="102.022" x2="100" y2="177.778" gradientUnits="userSpaceOnUse">
<stop stop-color="#F25AFA"/>
<stop offset="1" stop-color="#160078"/>
</linearGradient>
</defs>
</svg>
