<svg width="200" height="200" viewBox="0 0 200 200" fill="none" xmlns="http://www.w3.org/2000/svg">
<path d="M158.333 50H80.5556C63.7 50 50 63.7 50 80.5556V158.333C50 175.189 63.7 188.889 80.5556 188.889H158.333C175.189 188.889 188.889 175.189 188.889 158.333V80.5556C188.889 63.7 175.189 50 158.333 50ZM153.911 99.4667L116.167 149.467C114.744 151.344 112.589 152.533 110.233 152.744C110 152.767 109.756 152.778 109.511 152.778C107.411 152.778 105.378 151.989 103.833 150.544L85.9556 133.878C82.5889 130.733 82.4 125.467 85.5333 122.1C88.6778 118.733 93.9556 118.544 97.3111 121.678L108.433 132.044L140.611 89.4222C143.389 85.7556 148.6 85.0333 152.289 87.8C155.967 90.5778 156.689 95.8 153.911 99.4778V99.4667Z" fill="url(#paint0_linear_34_22)"/>
<path d="M31.1111 141.644C27.0555 141.644 23.4889 138.667 22.8778 134.533L11.4444 57.5999C8.96664 40.9333 20.5 25.3666 37.1666 22.8777L114.1 11.4444C128.2 9.37773 141.633 17.0777 146.922 30.2111C148.644 34.4777 146.578 39.3333 142.311 41.0555C138 42.7777 133.178 40.7111 131.467 36.4444C129.056 30.4777 122.922 26.9777 116.544 27.9222L39.6222 39.3666C32.0444 40.5 26.8 47.5777 27.9222 55.1444L39.3555 132.078C40.0333 136.633 36.8889 140.878 32.3444 141.544C31.9222 141.611 31.5111 141.633 31.1111 141.633V141.644Z" fill="url(#paint1_linear_34_22)"/>
<defs>
<linearGradient id="paint0_linear_34_22" x1="119.444" y1="50" x2="119.444" y2="188.889" gradientUnits="userSpaceOnUse">
<stop stop-color="#87F5F5"/>
<stop offset="1" stop-color="#7226FF"/>
</linearGradient>
<linearGradient id="paint1_linear_34_22" x1="79.3194" y1="11.1111" x2="79.3194" y2="141.644" gradientUnits="userSpaceOnUse">
<stop stop-color="#87F5F5"/>
<stop offset="1" stop-color="#7226FF"/>
</linearGradient>
</defs>
</svg>
