<svg width="200" height="200" viewBox="0 0 200 200" fill="none" xmlns="http://www.w3.org/2000/svg">
<path d="M116.533 137.667C111.433 140.289 105.711 141.667 100 141.667C94.2889 141.667 88.5445 140.278 83.4556 137.656L38.8889 114.722V155.567C38.8889 175.622 69.6334 186.122 100 186.122C130.367 186.122 161.111 175.622 161.111 155.567V114.722L116.533 137.667Z" fill="url(#paint0_linear_34_13)"/>
<path d="M185.767 102.511C185.478 93.5555 186.389 84.611 188.167 75.8221C188.367 74.3777 188.889 73.6999 188.889 70.8332C188.889 64.1555 185.2 58.0999 179.267 55.0444L108.911 18.8221C103.333 15.9444 96.6666 15.9555 91.0889 18.8221L20.7333 55.0555C14.8 58.111 11.1111 64.1555 11.1111 70.8332C11.1111 77.511 14.8 83.5666 20.7333 86.6221L91.0889 122.833C93.8777 124.267 96.9333 124.989 100 124.989C103.067 124.989 106.122 124.267 108.911 122.833L169.478 91.6555C169.267 95.4444 168.978 99.2332 169.1 103.033C169.367 111.611 170.5 120.211 172.444 128.6C173.333 132.455 176.767 135.055 180.544 135.055C181.178 135.055 181.8 134.989 182.433 134.833C186.911 133.8 189.711 129.322 188.678 124.844C186.989 117.511 186 110.011 185.767 102.511Z" fill="url(#paint1_linear_34_13)"/>
<defs>
<linearGradient id="paint0_linear_34_13" x1="100" y1="114.722" x2="100" y2="186.122" gradientUnits="userSpaceOnUse">
<stop stop-color="#87F5F5"/>
<stop offset="1" stop-color="#F042FF"/>
</linearGradient>
<linearGradient id="paint1_linear_34_13" x1="100.002" y1="16.668" x2="100.002" y2="135.055" gradientUnits="userSpaceOnUse">
<stop stop-color="#87F5F5"/>
<stop offset="1" stop-color="#F042FF"/>
</linearGradient>
</defs>
</svg>
