<svg width="40" height="41" viewBox="0 0 40 41" fill="none" xmlns="http://www.w3.org/2000/svg">
<circle cx="20" cy="20.5" r="20" fill="#F688FF" fill-opacity="0.1"/>
<path d="M25.8063 23.8372C25.9226 23.9064 26.0663 23.9875 26.229 24.0793C26.9418 24.4814 28.0193 25.0893 28.7575 25.8118C29.2191 26.2637 29.6578 26.8592 29.7375 27.5888C29.8223 28.3646 29.4839 29.0927 28.8048 29.7396C27.6334 30.8556 26.2276 31.75 24.4093 31.75H15.591C13.7727 31.75 12.367 30.8556 11.1955 29.7396C10.5165 29.0927 10.178 28.3646 10.2628 27.5888C10.3426 26.8592 10.7812 26.2637 11.2429 25.8118C11.9811 25.0893 13.0586 24.4814 13.7714 24.0793C13.934 23.9875 14.0777 23.9064 14.194 23.8372C17.7481 21.7209 22.2523 21.7209 25.8063 23.8372Z" fill="#FF8888"/>
<path d="M14.7502 15.5C14.7502 12.6005 17.1007 10.25 20.0002 10.25C22.8997 10.25 25.2502 12.6005 25.2502 15.5C25.2502 18.3995 22.8997 20.75 20.0002 20.75C17.1007 20.75 14.7502 18.3995 14.7502 15.5Z" fill="#FF8888"/>
</svg>
