<svg width="40" height="41" viewBox="0 0 40 41" fill="none" xmlns="http://www.w3.org/2000/svg">
<circle cx="20" cy="20.5" r="20" fill="#6DD3FF" fill-opacity="0.2"/>
<path fill-rule="evenodd" clip-rule="evenodd" d="M14 9.625C14.5523 9.625 15 10.0727 15 10.625V12.625C15 13.1773 14.5523 13.625 14 13.625C13.4477 13.625 13 13.1773 13 12.625V10.625C13 10.0727 13.4477 9.625 14 9.625ZM26 9.625C26.5523 9.625 27 10.0727 27 10.625V12.625C27 13.1773 26.5523 13.625 26 13.625C25.4477 13.625 25 13.1773 25 12.625V10.625C25 10.0727 25.4477 9.625 26 9.625Z" fill="#6DD3FF"/>
<path d="M21.0107 10.875C22.9744 10.875 24.531 10.8747 25.749 11.0518C27.0074 11.2347 28.0133 11.6205 28.7988 12.4697C29.5764 13.3106 29.9223 14.3729 30.0879 15.7041C30.2502 17.0089 30.25 18.6818 30.25 20.8154V21.4346C30.25 23.5682 30.2502 25.2411 30.0879 26.5459C29.9223 27.8771 29.5764 28.9394 28.7988 29.7803C28.0133 30.6295 27.0074 31.0153 25.749 31.1982C24.531 31.3753 22.9744 31.375 21.0107 31.375H18.9893C17.0256 31.375 15.469 31.3753 14.251 31.1982C12.9926 31.0153 11.9867 30.6295 11.2012 29.7803C10.4236 28.9394 10.0777 27.8771 9.91211 26.5459C9.74984 25.2411 9.74999 23.5681 9.75 21.4346V20.8154C9.74999 18.6819 9.74984 17.0089 9.91211 15.7041C10.0777 14.3729 10.4236 13.3106 11.2012 12.4697C11.9867 11.6205 12.9926 11.2347 14.251 11.0518C15.469 10.8747 17.0256 10.875 18.9893 10.875H21.0107ZM17 20.625C16.4477 20.625 16 21.0727 16 21.625C16 22.1773 16.4477 22.625 17 22.625V25.625C17 26.1773 17.4477 26.625 18 26.625C18.5523 26.625 19 26.1773 19 25.625V22.0254C19 21.2522 18.3728 20.625 17.5996 20.625H17ZM21 20.625C20.4477 20.625 20 21.0727 20 21.625C20 22.1773 20.4477 22.625 21 22.625H21.6758L20.6924 25.2773C20.5003 25.7951 20.7645 26.3704 21.2822 26.5625C21.7999 26.7544 22.3753 26.4903 22.5674 25.9727L23.9219 22.3223C24.2586 21.4148 23.518 20.625 22.7207 20.625H21ZM14 15.625C13.4477 15.625 13 16.0727 13 16.625C13 17.1773 13.4477 17.625 14 17.625H26C26.5523 17.625 27 17.1773 27 16.625C27 16.0727 26.5523 15.625 26 15.625H14Z" fill="#6DD3FF"/>
</svg>
