<svg width="40" height="41" viewBox="0 0 40 41" fill="none" xmlns="http://www.w3.org/2000/svg">
<circle cx="20" cy="20.5" r="20" fill="#FCBF04" fill-opacity="0.1"/>
<path d="M10 11C10.5523 11 11 11.4477 11 12V23C11 24.2974 11.0013 25.284 11.056 26.0673L14.4071 20.8679C14.1497 20.4749 14 20.0049 14 19.5C14 18.1193 15.1193 17 16.5 17C17.8807 17 19 18.1193 19 19.5C19 19.7756 18.9554 20.0407 18.8731 20.2886L21.4506 22.2302C21.7697 22.0825 22.1252 22 22.5 22C22.6476 22 22.7922 22.0128 22.9328 22.0373L24.7504 18.2857C24.2873 17.832 24 17.1995 24 16.5C24 15.1193 25.1193 14 26.5 14C27.8807 14 29 15.1193 29 16.5C29 17.8377 27.9494 18.93 26.6283 18.9968L24.6111 23.1603C24.8574 23.5475 25 24.0071 25 24.5C25 25.8807 23.8807 27 22.5 27C21.1193 27 20 25.8807 20 24.5C20 24.2321 20.0422 23.974 20.1202 23.732L17.5282 21.7795C17.2146 21.9211 16.8665 22 16.5 22C16.3567 22 16.2163 21.9879 16.0796 21.9648L11.9154 28.4256C12.2027 28.6374 12.6097 28.7889 13.2928 28.8808C14.1638 28.9979 15.3218 29 17 29H28C28.5523 29 29 29.4477 29 30C29 30.5523 28.5523 31 28 31H16.928C15.3393 31 14.0462 31.0001 13.0263 30.8629C11.9623 30.7199 11.0474 30.4113 10.318 29.682C9.58869 28.9526 9.28011 28.0377 9.13706 26.9737C8.99995 25.9539 8.99997 24.6607 9 23.0721V23.072V12C9 11.4477 9.44772 11 10 11Z" fill="#CA9802"/>
</svg>
