<svg width="40" height="41" viewBox="0 0 40 41" fill="none" xmlns="http://www.w3.org/2000/svg">
<circle cx="20" cy="20.5" r="20" fill="#EBECF0"/>
<path d="M30 16.2834C30 18.9249 27.7611 21.0667 25 21.0667C24.6753 21.0671 24.3516 21.0371 24.0327 20.9772C23.8031 20.9341 23.6883 20.9126 23.6082 20.9248C23.5281 20.937 23.4145 20.9974 23.1874 21.1182C22.545 21.4598 21.7959 21.5805 21.0755 21.4465C21.3493 21.1097 21.5363 20.7056 21.6188 20.2724C21.6688 20.0074 21.545 19.75 21.3594 19.5616C20.5166 18.7058 20 17.5525 20 16.2834C20 13.6418 22.2388 11.5 25 11.5C27.7611 11.5 30 13.6418 30 16.2834Z" stroke="#0A0C11" stroke-width="1.5" stroke-linejoin="round"/>
<path d="M23.4922 16.5H23.5003M26.4922 16.5H26.5003" stroke="#0A0C11" stroke-width="1.5" stroke-linecap="round"/>
<path d="M15.5019 30.4971H12.7182C12.3949 30.4971 12.0702 30.4516 11.7733 30.324C10.8067 29.9087 10.3162 29.3603 10.0877 29.0173C9.95764 28.8221 9.97617 28.5734 10.1173 28.386C11.2372 26.8985 13.8385 26.0001 15.5066 26C17.1748 26.0001 19.7714 26.8985 20.8913 28.386C21.0324 28.5734 21.0509 28.8221 20.9209 29.0173C20.6923 29.3603 20.2019 29.9087 19.2353 30.324C18.9383 30.4516 18.6137 30.4971 18.2904 30.4971H15.5019Z" stroke="#0A0C11" stroke-width="1.5" stroke-linecap="round" stroke-linejoin="round"/>
<path d="M18.286 20.7883C18.286 22.3196 17.0419 23.561 15.5073 23.561C13.9726 23.561 12.7285 22.3196 12.7285 20.7883C12.7285 19.257 13.9726 18.0156 15.5073 18.0156C17.0419 18.0156 18.286 19.257 18.286 20.7883Z" stroke="#0A0C11" stroke-width="1.5" stroke-linecap="round" stroke-linejoin="round"/>
</svg>
